<?xml version="1.0" encoding="utf-8"?>
<!-- Generator: Adobe Illustrator 26.1.0, SVG Export Plug-In . SVG Version: 6.00 Build 0)  -->
<svg version="1.1" id="Layer_1" xmlns="http://www.w3.org/2000/svg" xmlns:xlink="http://www.w3.org/1999/xlink" x="0px" y="0px"
	 viewBox="0 0 300 300" style="enable-background:new 0 0 300 300;" xml:space="preserve">
<style type="text/css">
	.st0{fill:#D98F89;stroke:#6C7281;stroke-width:4;stroke-miterlimit:10;}
	.st1{fill:#6C7281;}
</style>
<g>
	<path class="st0" d="M147.89,59.32c35.47-8.38,46.7-36.61,70.35-30.39c21.75,5.72,31.64,34.71,33.72,40.8
		c10.33,30.27-5.92,40.95,0,78.26c5.91,37.24,25.86,50.24,17.9,62.45c-9.17,14.06-36.05-2.6-72.02,12.49
		c-29.58,12.41-28.27,30.75-48.71,35.8c-37.07,9.16-89.28-39.36-109.7-91.87c-17.13-44.04-18.39-107.6,9.13-122.8
		C74.01,30,99.93,70.65,147.89,59.32z"/>
	<g>
		<path class="st1" d="M134.35,96.32v38.11h44.83c0.27,0.16,4.88,2.97,5,8.46c0.08,3.64-1.84,7.05-5,8.91c-14.94,0-29.89,0-44.83,0
			v39.79h50.43c3.31,1.84,5.31,5.37,5.16,9.09c-0.22,5.44-4.9,8.14-5.16,8.28c-23.91,0-47.82,0-71.73,0V78.94h71.73
			c3.2,1.89,5.12,5.36,5,9.04c-0.19,5.39-4.69,8.16-5,8.34C167.97,96.32,151.16,96.32,134.35,96.32z"/>
	</g>
</g>
</svg>
