<?xml version="1.0" encoding="utf-8"?>
<!-- Generator: Adobe Illustrator 26.2.1, SVG Export Plug-In . SVG Version: 6.00 Build 0)  -->
<svg version="1.1" id="Layer_1" xmlns="http://www.w3.org/2000/svg" xmlns:xlink="http://www.w3.org/1999/xlink" x="0px" y="0px"
	 viewBox="0 0 305.73 325.87" style="enable-background:new 0 0 305.73 325.87;" xml:space="preserve">
<style type="text/css">
	.st0{fill:#B2D17A;}
</style>
<path class="st0" d="M152.86,5.67C72.19,5.67,6.79,76.08,6.79,162.94S72.19,320.2,152.86,320.2c80.67,0,146.07-70.41,146.07-157.26
	S233.54,5.67,152.86,5.67z M150.55,214.92c12.01-0.01,24.46,9.04,24.72,18.34c0.14,4.88-3.11,8.67-8.07,14.44
	c-4.99,5.81-9.17,10.68-15.3,10.95c-5.9,0.26-10.31-3.87-15.3-8.55c-5.52-5.18-11-10.32-10.77-16.84
	C126.17,223.67,138.76,214.93,150.55,214.92z M50.8,112.02c0-13.78,9.38-24.96,20.95-24.96c11.57,0,20.95,11.17,20.95,24.96
	c0,13.78-9.38,24.96-20.95,24.96C60.18,136.97,50.8,125.8,50.8,112.02z M230.94,257.34c-2.98,9.55-8.29,15.51-12.59,20.22
	c-13.04,14.31-28.24,19.87-34.46,22.06c-3.46,1.22-15.39,5.19-31.47,5.19c-4.21,0-16.75-0.26-31.77-5.25
	c-10.13-3.37-17.32-7.53-21.93-10.2c-2.98-1.73-7.13-4.29-11.79-8c-4.98-3.97-7.22-6.6-7.88-7.39c-2.71-3.25-4.3-6.13-5.25-7.88
	c-1.32-2.42-2.89-5.33-4.03-9.47c-1.15-4.14-1.29-7.41-1.41-10.02c-0.09-2.07-0.22-5.35,0.49-9.53c0.34-2.01,0.76-3.56,1.04-4.58
	c0.23-0.85,1.13-4.05,2.69-7.58c1.57-3.55,3.06-5.73,6.54-10.94c4.47-6.68,6.7-10.02,7.58-11.43c3.1-4.96,5.1-8.78,7.7-13.75
	c1.77-3.37,4.22-8.09,7.09-14.54c0.88-1.97,2.61-5.95,4.58-11.12c1.9-4.98,3.99-10.95,5.99-17.78c2.03-6.94,3.24-12.25,3.97-15.52
	c0.78-3.46,2.25-10.31,3.6-19.12c0.41-2.67,1.32-8.82,2.08-16.8c0.8-8.44,1.1-15.25,1.22-19.37c0.23-7.55,0.12-13.36,0.06-15.7
	c-0.02-0.75-0.25-9.67-1.16-19.8c-0.56-6.22-0.84-9.33-0.98-9.84c-0.73-2.72-1.73-4.86-0.67-6.11c0.74-0.88,2.34-1.15,3.24-0.55
	c1.16,0.78,0.75,2.76,0.79,6.05c0.03,2.72,0.32,2.14,0.86,7.58c0.33,3.34,0.39,5.34,0.67,13.2c0.47,13.07,0.47,12.64,0.49,13.99
	c0,0,0.12,7.15-0.06,14.11c-0.8,30.87-8.53,60.28-8.53,60.28c-4.6,17.49-9.99,30.57-12.71,36.82c-2.58,5.93-6.92,15.89-13.28,26.07
	c-4.58,7.34-7.45,11.73-7.45,11.73c-4.45,6.81-5.47,8.03-7.09,11.06c-1.11,2.08-4.29,8.05-5.42,15.01
	c-2.19,13.5,4.31,24.7,6.15,27.76c4.9,8.17,10.98,12.38,19.06,17.96c10.53,7.28,19.96,10.78,23.34,11.95
	c8.35,2.91,27.1,8.12,49.98,3.63c14.84-2.91,25.31-8.71,29.69-11.36c9.04-5.47,14.3-10.92,16.07-12.83
	c2.55-2.75,5.72-6.22,8.53-11.69c1.34-2.61,3.95-8.29,4.85-16.05c0.43-3.74,0.96-12.19-2.57-21.75c-0.5-1.35-2.13-5.57-5.38-10.39
	c-2.77-4.11-5.22-6.42-7.7-8.98c0,0-6.3-6.51-13.63-16.56c-5.72-7.84-8.78-14.55-11.55-20.59c-1.29-2.81-7.36-16.34-11.3-36.11
	c-2.47-12.39-3-21.75-3.56-31.53c-0.89-15.58-0.34-28.12-0.04-34.83c0.44-10.02,1.18-18.13,1.18-18.13c0.44-4.83,0.6-5.37,0.9-9.49
	c0.25-3.51,0.79-7,0.98-10.51c0.2-3.63,0.16-5.85,1.55-6.56c0.85-0.43,2.1-0.23,2.76,0.46c1.16,1.21,0.16,3.62-0.58,6.47
	c-0.84,3.24-0.75,6.65-1.22,9.96c-1.01,7.12-2.04,20.6-2.44,32.14c-0.3,8.44-0.65,18.42,0.24,31.65
	c1.48,21.92,5.35,37.43,6.78,42.83c2.25,8.47,4.34,14.06,5.68,17.41c1.3,3.24,3.92,9.41,8.07,16.74c2.19,3.87,4.71,8.29,8.74,13.42
	c2.83,3.6,5.7,6.68,5.7,6.68c2.45,2.62,3.16,3.09,5.6,5.74c1.21,1.32,3.38,3.69,5.62,6.72c1.36,1.84,3.82,5.18,5.8,9.47
	c2.79,6.06,3.38,11.32,3.73,14.66C233.07,240.2,233.81,248.13,230.94,257.34z M224.61,136.97c-11.57,0-20.95-11.17-20.95-24.96
	c0-13.78,9.38-24.96,20.95-24.96c11.57,0,20.95,11.17,20.95,24.96C245.56,125.8,236.18,136.97,224.61,136.97z"/>
</svg>
