<?xml version="1.0" encoding="utf-8"?>
<!-- Generator: Adobe Illustrator 26.3.1, SVG Export Plug-In . SVG Version: 6.00 Build 0)  -->
<svg version="1.1" id="Layer_1" xmlns="http://www.w3.org/2000/svg" xmlns:xlink="http://www.w3.org/1999/xlink" x="0px" y="0px"
	 viewBox="0 0 300 240.11" style="enable-background:new 0 0 300 240.11;" xml:space="preserve">
<style type="text/css">
	.st0{fill:none;stroke:#FFFFFF;stroke-miterlimit:10;}
</style>
<path class="st0" d="M170.29,31.54c-3.78,4.11-13.46,14.66-10.51,24.73c2.75,9.38,15.7,15.73,26.67,14.8
	c16.19-1.38,17.53-17.71,35.83-21.61c13.53-2.89,26.6,3.1,34.27,6.62c16.56,7.59,20.73,16.71,25.31,14.8
	c7.66-3.19,9.81-34.46-5.65-51.79C252.98-6.97,195.24,4.37,170.29,31.54z"/>
<path class="st0" d="M128.66,31.54c3.78,4.11,13.46,14.66,10.51,24.73c-2.75,9.38-15.7,15.73-26.67,14.8
	c-16.19-1.38-17.53-17.71-35.83-21.61c-13.53-2.89-26.6,3.1-34.27,6.62c-16.56,7.59-20.73,16.71-25.31,14.8
	c-7.66-3.19-9.81-34.46,5.65-51.79C45.97-6.97,103.71,4.37,128.66,31.54z"/>
<path class="st0" d="M4.17,167.94c-5.73,20.7,34.8,59.62,79.44,65.81c43.57,6.04,79.71-21.46,86.06-26.48
	c34.93-27.59,36.15-60,59.19-61.92c24.14-2,37.99,32.34,53.74,26.48c12.14-4.52,18.4-30.14,9.74-46.34
	c-11.24-21.01-46.46-24.07-70.09-19.86c-63.16,11.24-73.23,79.63-117.21,77.1c-31.8-1.83-46.31-38.7-78.27-31.15
	C24.55,152.11,7.37,156.38,4.17,167.94z"/>
</svg>
